<svg width="30" height="79" viewBox="0 0 30 79" fill="none" xmlns="http://www.w3.org/2000/svg">
<path d="M11.274 4.29031C11.4337 5.14565 11.277 6.30974 11.0598 7.16835C10.9925 7.43842 10.6725 7.3068 10.6118 7.49333C10.4937 7.86312 10.6556 8.20903 10.5151 8.57465C10.467 8.69615 9.96043 8.55554 9.92155 8.68285C9.71222 9.38031 9.85511 10.0241 9.76677 10.7367C9.33061 14.2136 9.29432 17.6039 9.3027 21.1293C9.30513 22.2852 8.95544 23.725 9.2552 24.899C9.29067 25.0368 9.7243 24.9163 9.76285 24.9398C10.354 25.3077 9.45282 25.2453 9.35803 25.5264C8.98364 26.6322 9.05676 27.8425 9.33173 28.8613C9.45012 29.2945 10.2788 28.764 9.83374 29.2564C9.80378 29.2905 9.32517 29.2272 9.28779 29.3529C9.20393 29.6387 9.34173 30.1434 9.32813 30.3633C9.29887 30.782 9.31104 30.8493 9.34859 31.2361C9.3956 31.7619 9.23651 32.4226 9.40947 32.9766C9.44776 33.0946 9.90677 32.8781 10.011 33.0606C10.115 33.2432 10.1359 33.7554 10.0448 33.9434C9.9534 34.1299 9.56886 34.1027 9.48655 34.1439C8.79106 34.4864 9.87144 34.9518 9.90596 35.0233C10.5059 36.354 10.0941 37.6174 10.2791 38.916C10.4214 39.906 10.7646 40.9316 10.8803 41.8741C11.0165 42.9978 10.9061 43.986 11.1231 45.0675C11.1454 45.1816 11.683 44.9584 11.7115 45.0975C12.013 46.5751 12.1943 48.0637 12.0639 49.611C12.0504 49.7663 11.5283 49.6558 11.4855 49.8159C11.2341 50.7955 10.509 52.4023 12.7337 52.585C12.754 53.2152 12.7951 53.9851 12.4576 54.6081C12.2408 55.0113 11.6487 54.7544 11.9502 55.1548C12.0176 55.2452 12.4635 55.0378 12.5292 55.1795C12.8061 55.7794 12.7676 56.4808 13.1131 57.062C13.1844 57.1798 13.5976 57.0753 13.6791 57.0985C14.3408 57.2997 13.4129 57.9619 13.3577 58.0837C12.9482 59.004 13.2635 59.5725 13.3769 60.3472C13.403 60.5274 13.9313 60.2227 13.9766 60.393C14.1734 61.1593 14.2742 61.9465 14.2302 62.7484C14.2242 62.8848 14.2136 63.02 14.1981 63.1537C14.1718 63.3669 13.6629 63.2508 13.6256 63.3557C13.4654 63.8166 14.3878 63.7867 14.2451 64.2287C14.2159 64.3218 13.7968 64.3245 13.7535 64.3462C13.0731 64.6834 14.1064 64.7715 14.1365 64.8369C14.5336 65.6216 13.524 66.2392 13.7301 66.9956C13.7557 67.0884 14.266 66.8383 14.3058 67.1023C14.5781 68.8404 14.4399 70.7536 14.0385 72.3471C13.9802 72.5835 13.5803 72.4285 13.5319 72.4432C12.7777 72.7241 13.8086 72.8192 13.851 72.8519C13.8739 72.8757 13.8913 72.8988 13.9013 72.9012C13.8893 72.8514 13.9105 72.8124 13.7875 72.5179C13.6968 72.3831 13.6498 72.0383 12.9135 71.7036C12.5602 71.5456 11.9806 71.5992 11.7391 71.7224C11.4496 71.8453 11.2856 72.0008 11.1782 72.1157C10.8079 72.5761 10.8721 72.6507 10.8271 72.7367C10.8063 72.8093 10.8026 72.8346 10.8015 72.836C10.7945 72.8638 10.7973 72.8537 10.8021 72.8308C10.8124 72.7824 10.8282 72.7384 10.848 72.6677C10.8862 72.5398 10.9304 72.417 10.9432 72.2802C10.9547 72.1628 10.9347 72.0338 10.8432 71.8982C10.7506 71.783 10.5863 71.6659 10.3108 71.5462C10.8704 68.7807 10.2529 65.9658 11.3966 63.1843C11.4099 63.1497 11.9113 63.2216 11.9356 63.1524C12.2332 62.314 11.4491 62.4481 10.503 61.8719C10.2653 61.7296 11.4255 61.3161 11.5106 61.2779C11.8243 61.1421 12.5699 61.2989 12.631 61.2527C13.1105 60.8709 10.6368 60.8865 10.6429 60.3765C10.6472 60.3605 11.1015 60.4343 11.1473 60.3916C11.2912 60.2589 11.1121 60.1222 11.2705 59.9908C11.6368 59.6926 12.8401 59.5833 12.1458 59.1179C12.0557 59.0582 10.6519 59.1337 10.723 58.6706C10.7527 58.4866 10.7364 57.6552 10.829 57.4325C10.9217 57.2043 11.3725 57.3651 11.3922 57.349C11.9949 56.7333 12.2408 56.9699 13.1281 56.6618C14.012 56.3509 11.9084 56.4258 11.6744 56.2987C11.4412 56.1727 11.9371 55.7232 12.1091 55.6113C12.2812 55.5001 12.5678 55.6415 12.6654 55.5422C13.3029 54.8808 11.6229 55.2456 11.2901 55.0247C10.502 54.5095 12.0628 54.1245 12.2167 53.6499C12.2583 53.5218 11.9028 53.6257 11.8699 53.5114C11.7438 53.0576 12.2308 52.8009 11.7847 52.2882C11.712 52.2059 10.7742 51.7876 11.462 51.5233C11.5612 51.4858 11.95 51.5916 12.0368 51.4026C12.1672 51.1207 12.2511 50.6073 12.1202 50.2983C12.0234 50.0704 11.3838 50.3341 11.5818 50.0459C11.6702 49.9179 12.0457 50.1527 12.1805 49.9135C12.3153 49.6801 12.2963 49.0777 12.2821 48.8461C12.2676 48.6155 11.7825 48.7443 11.7497 48.7258C11.5617 48.615 11.3248 48.1685 11.3251 48.1333C11.2535 46.1734 12.0533 44.3588 11.7542 42.4452C11.7314 42.2963 11.2206 42.4033 11.2119 42.3807C10.9896 41.8726 12.3576 42.2556 12.8079 41.89C11.7692 41.9579 11.9542 41.7437 11.8343 41.3822C11.7757 41.2079 11.3748 41.31 11.3333 41.2947C10.7177 41.0452 11.5041 40.8499 11.6649 40.8021C12.2561 40.6219 11.5508 40.4487 11.9459 40.3255C12.3379 40.2022 12.9271 40.4594 12.9134 40.1128C12.5395 40.0224 11.5719 40.2973 11.4095 40.0372C10.9269 39.2607 11.2711 37.9511 11.4683 37.0234C11.5222 36.7719 11.5647 36.5517 11.577 36.3812C11.634 35.5924 11.5551 35.3296 11.6726 34.8659C11.883 34.0256 11.1737 34.3539 10.8214 33.8542C10.4681 33.3548 12.2527 33.5221 12.6305 33.4298C13.0081 33.3384 12.6121 33.278 12.817 33.1743C13.0218 33.0715 13.2908 33.2595 13.3588 33.0375C13.4268 32.8139 12.7178 32.2603 12.315 32.2084C11.4619 32.0952 10.5913 32.4089 10.8701 31.8238C10.8867 31.7901 11.3588 31.8689 11.3986 31.7412C11.7002 30.7381 11.6516 29.6928 11.8935 28.6848C11.9273 28.5437 12.4545 28.6273 12.48 28.5446C12.7464 27.6857 11.8965 28.0534 10.8908 27.6818C12.1892 27.6802 12.9583 27.3582 12.9124 26.7295C12.8853 26.3547 12.3271 26.4634 11.9088 26.2542C11.7827 26.1911 12.1457 25.8898 11.8765 25.8656C10.9964 25.7836 10.0509 26.1252 10.3777 25.4438C10.3934 25.4137 10.8754 25.4607 10.8951 25.3599C11.0243 24.7096 10.1122 24.7205 9.93708 24.049C9.80005 23.5264 10.2566 22.5147 10.2851 21.8983C11.7347 21.769 11.3442 21.2172 10.3225 21.087C10.3236 20.6892 10.2234 20.261 10.3233 19.8657C10.357 19.7276 10.785 19.7734 10.8287 19.752C11.5136 19.4239 10.5253 19.3489 10.4787 19.2671C10.0164 18.3684 10.6812 17.5486 9.88333 16.7148C9.85469 16.6853 8.84302 16.7219 9.55812 16.4164C9.60758 16.397 10.0906 16.6556 10.0909 16.2295C10.0913 15.806 10.5714 14.9761 10.0681 14.4179C9.94691 14.2877 9.1057 13.9637 9.73179 13.6409C9.81683 13.5981 10.1085 13.6256 10.2669 13.5626C10.7719 13.3633 9.74634 13.3049 10.605 13.0587C11.4641 12.8126 12.0969 12.3738 11.4902 11.8106C11.4726 11.793 10.6608 11.6636 10.6727 11.4779C10.6921 11.1839 10.8643 10.7648 10.8673 10.458C10.8684 10.3101 10.3632 10.3907 10.3547 10.3647C10.1388 9.48994 10.4803 8.84149 10.792 8.02899C10.8437 7.89151 10.8971 7.75318 10.9507 7.61214C11.0138 7.4398 10.4946 6.66633 11.1536 6.46279C11.8617 6.29444 13.9894 7.55228 13.7249 6.7713C13.6788 6.61194 13.031 6.05118 12.6652 5.5093C12.2905 4.97909 12.2183 4.45828 13.0406 4.76393C13.6494 3.52844 15.1262 3.58688 16.0224 2.52719C16.0625 2.4798 15.8679 1.60585 16.0078 1.55613C16.2128 1.4853 16.4828 1.81379 16.6318 1.7792C17.257 1.64522 17.6679 1.11386 18.2361 0.930291C18.2376 0.929818 18.239 0.929367 18.2405 0.92894L18.3165 0.908736C18.5477 0.908866 18.5109 1.33088 18.7809 1.33055C19.0475 1.33262 19.2052 0.764391 19.5907 1.02321C19.8846 1.22192 20.142 2.3599 20.462 2.50692C20.5244 1.388 20.7697 1.4171 21.2479 1.16577C21.3411 1.11733 21.2856 0.719476 21.3324 0.676617C21.5283 0.494198 21.6507 0.834589 21.8426 0.639597C21.8898 0.592948 21.9443 0.213841 21.9873 0.154623C22.3643 -0.363972 22.7006 0.573673 22.7404 0.7361C22.9233 1.35397 23.1622 0.898377 23.3371 1.17159C23.5031 1.44423 23.1101 1.63469 23.3274 1.82995C23.7711 2.23241 24.4212 2.37731 24.9135 2.58962C25.1093 2.67151 25.1631 2.14334 25.1954 2.14397C25.5193 2.17689 25.7153 2.50865 26.0107 2.45537C26.1415 2.4098 26.281 2.27407 26.427 1.97719C26.1585 4.61318 26.7401 1.79824 27.2394 2.39433C27.2796 2.44179 27.2186 3.68926 26.976 3.84367C26.7274 3.99638 26.4612 3.56142 26.0912 3.76853C26.0313 3.8037 25.6595 4.32274 25.3778 4.62658L25.0605 4.50781C24.9523 4.63014 24.8709 4.72209 24.8508 4.73597C24.3329 5.1087 25.0136 3.38014 25.0321 3.27631C25.2438 2.1674 24.371 3.18081 24.2519 3.23231C23.6579 3.44304 23.3414 3.07808 22.8775 3.25428C22.5758 3.36929 22.2865 4.55466 22.1179 4.48035C21.5793 4.24575 21.5181 2.52062 20.7756 3.93396C20.6226 4.23892 20.664 5.57196 20.303 4.50588C20.2887 4.43822 19.9671 3.47065 19.775 4.08052C19.7521 4.15723 19.758 4.54544 19.7289 4.57853C19.5359 4.79323 19.3908 4.48955 19.1814 4.65232C19.0549 4.75227 18.9195 4.883 18.7764 4.94716L19.8464 4.66276C19.7152 4.75187 19.5719 4.81351 19.4235 4.81944C19.1873 4.8314 18.6787 4.25653 18.524 4.12828C18.0825 3.7567 18.1499 4.63382 17.7695 4.12404C17.3798 3.61513 17.3078 2.62003 16.7492 2.4232C17.1358 3.35509 17.5168 4.31843 17.903 5.25681C17.1317 5.55447 16.3336 5.6068 15.8287 6.0255C15.7691 6.0769 16.1512 6.46932 16.1015 6.53194C15.9063 6.78453 15.4569 6.66919 15.3829 6.98032C15.3276 7.22435 15.6927 7.7074 15.7653 7.87498C14.7155 7.37983 14.9249 7.84651 14.7771 8.00306C14.7215 8.06555 14.4248 7.98254 14.3116 8.02067C13.8933 8.18357 14.9188 8.27788 15.0649 8.36314C15.2862 8.48441 15.1547 8.51101 14.8857 8.5361C14.379 8.64546 13.4029 8.68991 13.4066 9.06959C13.4051 9.10398 14.6044 9.56469 14.679 9.61267C15.1589 9.95281 14.2479 9.63695 14.1459 9.83165C13.9609 10.1923 13.6577 10.4498 14.0117 10.9005C14.1166 11.0339 14.8818 11.3426 14.291 11.597C14.2136 11.6311 13.8067 11.6163 13.7831 11.6438C13.3923 12.1516 14.6723 12.1344 15.1124 12.4001C15.5527 12.6626 14.6895 13.1269 14.4403 13.2345C13.7943 13.5008 14.1509 13.0654 14.0862 13.0551C13.3121 12.9349 13.4579 13.2612 13.406 13.5121C12.1558 13.611 12.2508 13.9689 13.3577 13.7767C13.4785 13.7552 13.3513 13.5652 13.406 13.5121C14.6452 13.6712 14.8228 14.0296 13.7051 14.5358C13.1818 14.775 12.5408 14.6262 12.815 15.2282C12.9397 15.5025 13.792 15.331 14.0456 15.5562C14.6243 16.0702 13.8874 16.8798 14.0683 17.452C14.1341 17.6613 14.585 17.4092 14.6462 17.5507C14.8106 17.9293 14.49 18.2961 14.7095 18.674C14.7299 18.7073 15.2136 18.5735 15.2317 18.6928C15.3795 19.6071 15.1462 20.4402 15.2356 21.4165C15.2787 21.8839 15.6339 22.698 15.6274 23.1987C15.6181 24.0503 15.001 25.1759 15.2383 25.881C15.3916 26.3485 15.8751 26.2032 16.2284 26.3767C16.9131 26.7124 15.8051 27.5189 15.6313 27.6219C15.6256 27.6248 15.4765 27.2278 15.241 27.4651C14.7239 27.6335 15.6287 27.6174 15.6313 27.6219C15.5198 27.6894 15.4725 28.5285 15.578 28.6786C15.6361 28.7629 16.0997 28.6788 16.1211 28.7236C16.6216 29.8017 16.8123 30.8953 16.6555 32.0381C16.6471 32.0583 16.1221 32.0574 16.1089 32.1043C15.9111 32.7608 16.5718 33.1507 16.976 33.6687C17.3801 34.1932 17.2691 34.6276 16.3813 34.9771C16.5094 35.3807 16.1298 35.9734 15.8973 36.3125C15.665 36.6525 16.6858 36.6749 16.7067 36.7041C16.7557 36.771 16.798 36.8361 16.8343 36.8997C17.292 37.6835 16.7954 38.2018 16.7284 39.0686C16.6925 39.5179 16.8566 40.3942 16.9762 40.871C17.0725 41.2529 16.8372 41.4867 16.9955 41.8346C17.0166 41.8817 17.4701 41.8267 17.4878 41.8409C18.0373 42.2234 16.924 42.0524 16.7269 42.136C16.0101 42.4395 15.6286 42.619 15.9748 43.12C16.0541 43.2349 17.6575 43.5513 17.7537 43.7607C17.8757 44.0328 17.3013 43.9368 17.4436 44.2205C17.4553 44.2447 17.8088 44.2356 17.7953 44.4115C17.7373 45.2428 17.5402 46.1252 17.5824 46.99C17.5868 47.107 18.1465 46.9525 18.162 47.1216C18.2346 47.9094 18.2189 48.7847 17.9594 49.5524C17.8938 49.7411 17.5006 49.6245 17.3842 49.6658C16.6797 49.9156 17.7059 50.2776 17.7255 50.3364C18.2219 51.7491 17.2943 52.8178 17.7317 54.2693C17.7574 54.3496 18.8542 54.9444 17.9104 55.2186C17.8476 55.2371 16.8821 55.5009 17.5401 55.7391C17.5813 55.7539 18.0786 55.5911 18.0264 55.8797C17.9743 56.1667 18.3029 56.6324 17.7545 57.0318C17.5817 57.1573 16.6176 57.4478 17.3811 57.8243C17.4345 57.8424 19.1626 58.4525 17.9644 58.6465C17.7671 58.6777 16.5018 58.6315 17.146 59.083C17.2709 59.169 17.5549 59.0185 17.7287 59.2433C17.9967 59.5864 17.652 60.0568 18.2102 60.4826C18.3091 60.5578 19.164 60.879 18.5081 61.1311C18.4054 61.1698 17.984 61.0875 17.9347 61.2221C17.6986 61.8551 17.9702 62.5316 17.666 63.1676C17.5591 63.3924 16.8783 63.258 16.6907 63.4972C16.5031 63.739 16.3174 64.2162 16.6243 64.4658C16.9313 64.7182 18.0259 64.4661 18.1046 64.8512C18.4468 66.4952 17.7648 68.1009 17.6113 69.7359C17.588 69.986 17.9851 69.797 17.9786 70.1575C17.9714 70.5979 17.9956 71.1946 17.9928 71.7911C17.9912 71.9566 17.9883 72.1147 17.983 72.2642C17.977 72.4266 17.9669 72.6068 17.9544 72.7593C17.9389 72.953 17.9238 73.0918 17.8929 73.3296C17.8751 73.4651 17.8678 73.4997 17.8299 73.7484C17.8107 73.8655 17.791 73.9887 17.7433 74.2104C17.7095 74.3642 17.6774 74.5426 17.5472 74.9333C17.4759 75.1345 17.3892 75.3891 17.1549 75.8216C16.8883 76.2397 16.6029 76.9445 15.2127 77.8571C14.5225 78.2758 13.4484 78.7424 11.9789 78.6509C10.5705 78.5611 9.44104 77.9073 8.81982 77.3712C7.58131 76.2441 7.46531 75.6145 7.26531 75.2111C6.97295 74.4271 6.9814 74.2168 6.93698 73.9956C6.84743 73.0754 6.92979 72.8763 6.99054 72.5509C7.06092 72.2612 7.16061 72.0413 7.29058 71.8498C7.9457 70.9236 8.46023 72.0703 8.72428 71.3735C8.85043 71.0393 7.5807 70.7108 7.5397 70.6336C7.12463 69.899 7.67176 69.3866 7.47209 68.7452C7.43051 68.6143 6.92381 68.7672 6.89401 68.6561C6.78759 68.2791 6.99282 67.8663 6.92524 67.5065C6.89369 67.3462 6.50513 67.4056 6.52399 67.2553C6.56425 66.8973 6.70058 66.5722 7.03103 66.1898C7.06104 66.1543 7.56795 66.3204 7.55886 66.0528C7.54269 65.622 7.83804 65.039 7.398 64.5982C7.2658 64.4684 6.37956 64.5918 6.94502 64.1943C7.05439 64.1164 7.9921 64.0404 7.33989 63.8521C7.29006 63.8357 7.23105 63.8185 7.16182 63.8004C6.99841 63.756 5.65234 63.2795 6.39639 62.8213C6.59219 62.7003 7.42478 62.337 7.25704 62.1675C7.23103 62.145 6.77317 62.3264 6.70101 62.1752C6.45392 61.6349 6.40745 61.035 6.16378 60.4844C6.09772 60.3372 5.64459 60.6483 5.56159 60.4251C5.33193 59.8072 5.32652 59.0028 5.37583 58.3531C5.39507 58.1141 5.82829 58.2046 5.86976 58.1805C6.54475 57.7916 5.54655 57.796 5.47501 57.7167C5.04332 57.222 5.42893 56.724 5.22215 56.2329C5.16635 56.0973 4.71991 56.2752 4.67388 56.2541C4.22138 56.0312 5.08974 56.1078 5.15049 55.9084C5.32368 55.3508 5.18922 54.7795 5.04215 54.267C4.98746 54.0789 4.48658 54.3849 4.4437 54.2151C4.17984 53.212 4.05299 52.1408 4.18279 51.0904C4.20825 50.8928 4.64169 50.9425 4.72967 50.8875C5.34594 50.5076 4.37855 50.2614 4.27756 50.1843C3.81663 49.8337 4.156 49.6118 4.02747 49.2562C3.39267 47.5198 3.2802 45.2549 3.17155 43.5254C3.02727 41.2711 3.17449 39.4865 2.78839 37.3679C2.76445 37.2331 2.22937 37.443 2.20163 37.3276C1.86805 35.8272 1.90107 34.3172 1.56618 32.8064C1.53979 32.683 1.0347 32.9225 0.97478 32.727C0.848217 32.3266 0.818814 31.8008 0.941494 31.3635C1.00035 31.1503 1.48117 31.3757 1.53125 31.1624C1.64891 30.665 1.63397 30.1597 1.4998 29.6767C1.44163 29.4717 0.935246 29.8415 0.901587 29.5702C0.662935 27.7348 0.406783 25.909 0.961477 23.9959C0.999546 23.8638 2.08716 23.6679 1.8564 23.4114C1.55057 23.4137 1.19272 23.4417 0.866812 23.4571C0.489809 20.7797 0.715458 18.0936 0.659397 15.4006C0.656897 15.2863 0.0832357 15.5086 0.0754495 15.2871C0.0303788 14.0131 -0.174895 12.7613 0.367742 11.4599C0.420775 11.3293 1.44694 11.3674 1.2818 10.9917C1.25162 10.9259 1.10038 10.3543 0.874557 10.2092C0.840528 10.1896 0.364777 10.3069 0.346435 10.1202C0.24904 9.06959 0.337712 7.90891 0.617131 6.85668C0.663108 6.68419 1.17473 6.861 1.21192 6.7382C1.47176 5.86558 1.07738 4.91724 1.53706 4.09095C1.84672 3.53402 2.72801 3.73731 3.59421 3.44063C3.71638 3.39884 3.73545 3.05388 4.23981 3.03577C5.50795 2.98987 6.89665 3.15517 8.24836 3.08643C8.53944 3.07221 8.22594 2.61526 8.92947 2.88588C8.97652 2.90496 9.21017 3.23491 9.449 3.31527C9.61409 3.37134 10.1268 3.2694 10.3382 3.38372C10.5495 3.49783 10.1197 3.62446 10.3685 3.8128C10.6203 4.0006 11.2034 3.91647 11.274 4.29031ZM14.8538 37.8297C14.3704 38.1433 16.1656 38.1499 15.7292 37.8308C15.706 37.8154 14.8775 37.8135 14.8538 37.8297ZM15.6901 4.44987C14.9819 3.94943 15.4306 5.05243 15.942 5.44865C16.4289 5.86235 15.8938 4.60914 15.6901 4.44987ZM18.6033 2.4617C18.5578 2.40715 18.5178 2.38069 18.4837 2.37691L18.8243 2.28638C18.4849 2.35626 19.1173 4.02584 19.442 3.72263L18.6606 3.93033C18.6793 3.91768 18.6985 3.89586 18.7183 3.86365C18.7368 3.8324 18.631 2.49525 18.6033 2.4617ZM3.84607 4.79806C3.86986 4.79384 3.89175 4.55004 3.86813 4.54424C3.29748 4.4171 3.25407 4.90562 3.84607 4.79806ZM22.3867 2.00139C22.3129 1.63523 21.8527 1.96328 21.9528 2.41326C22.0243 2.77218 22.468 2.45293 22.3867 2.00139ZM13.0927 53.639C13.066 53.6438 13.0415 53.8202 13.1927 53.817C13.6796 53.8063 13.5427 53.5599 13.0927 53.639ZM29.2037 3.44516C28.1365 3.34173 27.6768 1.20499 28.7046 1.47868C28.8981 1.52606 28.2717 2.13869 28.5135 2.33438C28.9724 2.69107 29.2843 1.37043 29.7599 2.07795C29.8466 2.20748 29.2651 3.45611 29.2019 3.44808C29.2025 3.44711 29.2031 3.44614 29.2037 3.44516ZM12.7025 38.0504C12.6789 38.057 12.6616 38.2996 12.6852 38.3048C13.2576 38.4241 13.2929 37.935 12.7025 38.0504ZM11.8746 63.8465C11.8238 63.8607 11.7651 64.4153 11.8112 64.4324C12.7367 64.7425 12.8583 63.62 11.8746 63.8465ZM10.3227 21.8849C9.72609 21.68 9.62679 21.3683 10.3219 21.0883C10.3101 21.3514 10.3315 21.6195 10.3227 21.8849Z" fill="white"/>
</svg>
