<svg width="84" height="92" viewBox="0 0 84 92" fill="none" xmlns="http://www.w3.org/2000/svg">
<path d="M4.0011 35.415C4.7101 35.6497 6.59521 36.7524 9.16797 38.3707C11.1897 39.6425 12.1391 41.3407 13.122 42.2832C14.946 44.0324 17.9699 46.6261 21.7188 48.9925C26.0823 51.747 27.2247 53.2749 29.9955 54.6159C31.2762 55.2357 33.231 57.3724 36.3444 60.3305C39.4029 63.2364 41.6227 64.3414 42.2511 65.0883C43.4116 66.4678 45.1724 68.5195 46.907 70.9654C50.1759 75.575 54.3466 77.3807 55.0971 78.4086C56.17 79.878 57.3486 80.6197 58.9669 82.2796C60.4051 83.7546 62.3234 84.3378 64.065 85.3645C66.0045 86.5079 68.5644 86.8655 70.1531 87.2259C71.379 87.504 71.8936 85.3764 72.4876 84.2263C73.7889 81.7068 74.739 77.3901 75.333 76.1263C75.7107 75.3228 75.7681 74.3076 76.24 71.7573C77.2974 66.0426 77.5869 61.8967 77.8619 60.1313C78.488 56.1131 78.6942 53.0449 78.7725 51.787C78.9096 49.5818 79.1684 47.2023 79.2076 45.3089C79.2403 43.7244 79.0926 40.9684 78.6183 37.2989C78.2577 34.5088 78.3788 32.7332 77.9864 31.0034C76.6493 25.1095 76.1665 22.224 75.812 18.181C75.5335 15.0049 75.3793 9.52139 75.0627 6.69965C74.7462 3.87791 74.3549 3.87791 74.036 4.07354C73.3482 4.4954 73.0839 5.29827 72.3773 6.43645C70.8568 8.88564 67.7297 12.1605 64.0188 15.1198C61.4991 17.1291 60.2059 19.6725 58.9824 22.1184C58.0229 24.0364 56.4973 26.3902 53.7384 29.1503C50.9751 31.9148 47.8827 34.5305 45.0444 37.2527C43.6806 38.5606 42.206 39.4271 39.7981 40.4194C34.1467 42.7484 29.9327 43.9466 28.7103 44.7753C26.3518 46.3744 23.8481 48.0535 20.3755 50.3844C18.0243 51.9626 14.994 52.8813 13.9637 53.6306C12.1393 54.9575 8.99487 60.6731 8.03453 63.6253C7.33028 64.9603 6.69005 66.0012 6.33556 66.2004C6.13757 66.1648 5.90282 65.8519 5.66096 65.5294" stroke="white" stroke-width="8" stroke-linecap="round"/>
</svg>
