<svg width="61" height="65" viewBox="0 0 61 65" fill="none" xmlns="http://www.w3.org/2000/svg">
<path d="M9.05606 1.64736C9.35954 2.65825 9.47981 4.13928 9.48715 5.28142C9.49067 5.64199 9.17039 5.51809 9.15964 5.76667C9.13952 6.2545 9.36845 6.67696 9.32799 7.16262C9.31385 7.32711 8.82331 7.22348 8.81897 7.39448C8.79894 8.3326 9.08509 9.15047 9.17487 10.0747C9.62299 14.6497 10.3921 19.0871 11.1456 23.6652C11.3932 25.1669 11.3708 27.0813 11.8756 28.5882C11.9348 28.7633 12.3079 28.5728 12.3477 28.6001C12.9604 29.0321 12.1238 29.022 12.0921 29.3973C11.9681 30.8854 12.258 32.445 12.6919 33.7545C12.8787 34.3161 13.5438 33.5735 13.2243 34.2472C13.2029 34.2938 12.7518 34.2351 12.7402 34.4031C12.7137 34.7792 12.9286 35.4317 12.9533 35.716C12.998 36.2617 13.0214 36.3522 13.1218 36.8575C13.2532 37.5391 13.2144 38.4001 13.4645 39.1257C13.5184 39.277 13.9066 38.9811 14.0316 39.2146C14.1564 39.4478 14.2572 40.118 14.2022 40.364C14.147 40.6097 13.7884 40.5843 13.7189 40.6401C13.1312 41.103 14.1993 41.6901 14.2413 41.7803C14.9956 43.5011 14.7965 45.1574 15.1442 46.8529C15.4083 48.1351 15.8591 49.4781 16.0835 50.7086C16.1249 50.9372 16.1604 51.1619 16.192 51.3838C16.3714 52.6296 16.3957 53.7694 16.6169 54.9872C16.6438 55.1381 17.1282 54.8809 17.1626 55.0689C17.3178 55.9116 17.4408 56.7654 17.5433 57.4915C17.5918 57.8461 17.6531 58.1962 17.6579 58.3016C17.6437 58.3446 17.6699 58.3148 17.3691 58.0026C17.2203 57.8561 16.9132 57.6255 16.5258 57.5178C16.1348 57.4043 15.7839 57.4401 15.5893 57.4931C15.8131 57.4893 16.0332 57.4832 16.2516 57.4749C16.4096 57.4684 16.3352 57.9605 16.5065 57.9778C17.5151 58.1472 19.6408 57.9638 18.8474 56.0205C19.3824 55.7082 19.9739 55.2227 20.6618 54.9964C21.1095 54.8411 21.2631 55.457 21.403 54.9166C21.4331 54.7948 20.9948 54.6617 21.0625 54.5022C21.3328 53.8507 21.8482 53.2366 21.9574 52.4898C21.9788 52.3371 21.6098 52.2076 21.5639 52.1411C21.1924 51.6056 22.2628 51.468 22.3771 51.3598C23.2075 50.6283 23.2459 49.8308 23.4952 48.9338C23.5532 48.7215 22.9834 48.842 23.0199 48.6355C23.2138 47.5682 23.4665 46.4749 23.8523 45.4267C23.9393 45.1919 24.3474 45.4781 24.4116 45.368C24.6877 44.8764 23.868 44.6635 24.1052 44.1948C24.1539 44.0953 24.5255 44.1962 24.5691 44.1819C25.2552 43.9525 24.3568 43.5901 24.3437 43.513C24.156 42.5314 25.168 41.9636 25.0788 41.0001C25.0668 40.8852 24.5739 41.1187 24.5692 40.7986C24.5333 38.6672 24.6439 36.4108 24.9297 34.2542C24.9733 33.9187 25.3458 34.139 25.3893 34.1162C26.069 33.7386 25.1245 33.5632 25.0836 33.4578C24.7848 32.6216 25.5084 31.7552 24.355 31.2641C24.4564 27.5985 23.3775 24.1106 23.7754 20.3672C23.7794 20.3205 24.2463 20.3266 24.2524 20.2337C24.3252 19.0931 23.6523 19.4085 22.6702 18.8562C22.421 18.7028 23.3613 17.9639 23.4288 17.9037C23.6778 17.678 24.3837 17.7389 24.4275 17.6704C24.7684 17.1198 22.5514 17.5681 22.4298 16.9159C22.4297 16.8948 22.855 16.9043 22.8855 16.842C22.9812 16.6461 22.7896 16.5218 22.8953 16.3096C23.0899 15.9486 23.7719 15.6608 23.7164 15.345C23.7001 15.2527 23.623 15.1568 23.4572 15.0608C23.3586 15.0062 22.1365 15.3913 22.0643 14.8431C22.0413 14.6314 21.7368 13.6147 21.7348 13.267C21.7355 12.9334 22.1913 13.0477 22.2027 13.0204C22.5312 12.0545 22.8288 12.3126 23.5428 11.7616C24.2718 11.2485 22.3927 11.6553 22.1528 11.492C21.9064 11.3276 22.3166 10.5799 22.4905 10.4307C22.654 10.2732 22.9077 10.4839 23.0029 10.3509C23.0306 10.313 23.0544 10.2783 23.0747 10.2462C23.5345 9.57936 22.0833 9.81587 21.849 9.43537C21.3288 8.35377 22.9935 8.13228 23.4653 7.72504C23.6058 7.59455 23.2512 7.52858 23.3326 7.36954C23.6963 6.73054 24.2805 6.79213 24.6493 6.02573C24.6941 5.91259 24.7954 4.93563 25.3752 5.13718C25.4066 5.15068 25.4396 5.16832 25.4741 5.1905C25.5609 5.24775 25.5976 5.62888 25.8606 5.58255C26.2524 5.51374 26.8932 5.28248 27.2086 5.0025C27.4415 4.7953 26.8787 4.41262 27.3026 4.415C27.491 4.41715 27.3509 4.85965 27.6905 4.83922C28.0257 4.81912 28.7511 4.4834 29.0261 4.35729C29.3006 4.22949 28.9781 3.88285 28.9887 3.84591C29.062 3.62848 29.5334 3.20824 29.5827 3.19058C32.0567 2.16474 34.6063 2.22974 37.0518 1.52724C37.2455 1.47277 37.0307 1.03575 37.0594 1.02268C37.708 0.708561 37.3882 2.02895 37.922 2.36102C37.6982 1.4349 38.0034 1.55635 38.4636 1.38167C38.6858 1.29706 38.5074 0.951471 38.5227 0.911062C38.7884 0.306888 39.13 0.990458 39.2091 1.12892C39.5051 1.63779 39.6704 0.970317 39.868 1.31267C40.0624 1.65286 39.7777 2.22409 40.2257 2.16522C40.3152 1.81261 39.874 0.967383 40.2077 0.784771C41.4823 0.0808011 44.0181 0.630605 45.0653 0.681865C46.1225 0.724293 46.4606 0.660447 47.0742 0.777445C48.1797 0.994392 47.7745 0.336817 48.4643 0.0364029C49.1577 -0.261371 48.809 1.36031 48.9051 1.70991C48.9984 2.05956 49.1084 1.70145 49.2249 1.89448C49.3414 2.0875 49.0824 2.32195 49.3601 2.39705C49.6375 2.47165 50.4141 1.86363 50.521 1.50099C50.7468 0.732154 50.415 -0.0865523 51.1584 0.214109C51.2009 0.231956 51.0527 0.655735 51.2157 0.702442C51.7508 0.849403 52.2907 0.946279 52.8386 1.03276L53.2599 1.02219L53.4529 1.47575C53.6241 2.24321 53.8087 3.03362 53.8742 3.81103C53.8893 3.99447 53.3881 3.98378 53.3915 4.09157C53.42 5.2159 54.0704 4.61045 55.0942 4.93715C53.9195 5.14017 53.3187 5.65186 53.5279 6.44051C53.6518 6.91464 54.128 6.69652 54.562 6.91298C54.6929 6.97809 54.4366 7.40567 54.6876 7.40719C55.5092 7.41586 56.2926 6.8732 56.1569 7.80063C56.1494 7.84104 55.6985 7.82848 55.7036 7.96041C55.7315 8.81242 56.5653 8.7256 56.8631 9.59879C57.0964 10.2817 56.8566 11.6346 56.9246 12.4447C55.6147 12.678 56.0532 13.3636 57.0102 13.5061C57.0658 14.0279 57.214 14.5841 57.1708 15.1025C57.1565 15.2813 56.7576 15.2309 56.7201 15.2593C56.1298 15.695 57.0466 15.7763 57.099 15.8833C57.6271 17.0457 57.099 18.1281 57.9084 19.1964C57.9374 19.2341 58.8632 19.1807 58.2343 19.5794C58.1907 19.6052 57.724 19.2766 57.7624 19.8263C57.8011 20.378 57.4343 21.461 57.9452 22.1695C58.0685 22.3403 58.8666 22.7238 58.3236 23.1602C58.2498 23.2183 57.9803 23.1924 57.8413 23.2796C57.3985 23.5602 58.3412 23.5887 57.5798 23.9425C56.8184 24.2968 56.2844 24.9148 56.9017 25.6203C56.9199 25.6429 57.6743 25.7526 57.685 25.9944C57.7016 26.3798 57.5966 26.9368 57.6358 27.3349C57.6548 27.5256 58.1025 27.364 58.1137 27.3964C58.4808 28.6662 58.1442 29.6193 58.0651 31.0088C58.0497 31.2622 58.7261 31.953 58.2631 32.4739C57.7561 33.0459 55.4686 32.638 56.0824 33.8362C56.3274 34.3156 59.225 34.7802 57.7933 35.7625C58.2569 37.4831 57.5757 39.1194 58.1786 40.8446C58.2053 40.9217 59.015 41.1328 59.0121 41.3155C59.0066 41.5926 58.6399 41.7612 58.6238 41.9583C58.5466 42.7777 58.8979 43.5253 58.8807 44.3079C58.8749 44.6032 58.4848 44.5206 58.4782 44.8812C58.472 45.242 58.9902 45.4597 58.7646 45.9463C58.5931 46.3268 57.5697 46.7398 57.4692 47.225C58.4947 47.196 58.488 47.5363 58.7849 48.1189C58.8424 48.2302 59.1937 48.0925 59.2393 48.1443C59.4329 48.3552 59.1462 48.5652 59.3558 48.7639C59.4063 48.8135 59.7563 48.7997 59.8173 48.8391C60.3491 49.1748 59.5898 49.7844 59.4577 49.8878C58.9561 50.2927 59.421 50.4587 59.2314 50.7587C59.042 51.0595 58.7627 50.64 58.6566 50.985C58.4374 51.706 58.549 52.621 58.5851 53.3406C58.6012 53.6219 59.0536 53.396 59.0668 53.4355C59.0757 53.4668 59.0827 53.4982 59.0881 53.5295C59.2249 54.0802 58.9034 54.6735 59.8145 54.8776C57.4712 55.5721 60.0928 55.2059 59.7002 56.1144C59.6679 56.1856 58.5424 56.3763 58.3514 56.1428C58.1606 55.91 58.4739 55.493 58.1732 55.176C58.103 55.0993 56.9857 54.7702 56.913 54.7181C56.3473 54.3009 58.02 53.9907 58.1089 53.9495C58.3485 53.8371 58.451 53.7282 58.4679 53.6226L58.4627 53.576C58.5369 53.2763 57.8538 52.9577 57.7865 52.8411C57.3756 52.1462 57.5789 51.5048 57.2883 50.9379C57.0999 50.5572 55.9846 50.5743 56.0027 50.2573C56.0651 49.2394 57.6022 48.7997 56.2128 47.9042C55.9166 47.7121 54.7075 47.9575 55.6333 47.1874C55.6916 47.1395 56.5441 46.5581 55.9768 46.26C55.9052 46.2227 55.5505 46.2389 55.5185 46.1869C55.3109 45.8431 55.5842 45.6055 55.4328 45.2277C55.2815 44.8486 55.0606 44.3985 55.1629 43.9623C55.2239 43.6982 55.8707 43.3316 56.0271 43.1977C56.4782 42.821 55.6981 42.4825 56.253 42.2375C56.8108 41.9914 57.6912 42.3886 58.0325 41.7897C57.1099 41.8082 56.1617 41.7997 55.2333 41.8053C55.2106 40.5391 55.4515 39.2805 55.3468 38.0097C55.333 37.8538 54.8457 38.0385 54.8181 37.8721C54.7037 37.1703 55.0235 36.5231 54.8422 35.8006C54.6997 35.2366 54.1391 34.6429 53.9708 34.0604C55.0025 33.6328 54.5891 32.7725 54.6418 32.1282C54.6599 31.9017 54.9421 31.8974 55.0229 31.7312C55.3202 31.1032 54.4093 31.452 54.2513 31.298C53.576 30.6409 55.6779 30.427 55.5616 29.5918C55.5562 29.5467 54.3919 29.0975 54.316 29.0296C53.8225 28.5964 54.7003 28.9204 54.7592 28.6189C54.8665 28.0678 55.1025 27.6686 54.7183 27.0674C54.6047 26.8916 53.8663 26.5157 54.373 26.1086C54.4393 26.0549 54.8122 26.046 54.8303 26.0062C55.1269 25.2876 53.9609 25.3819 53.5285 25.0333C53.0962 24.685 53.8363 24.0036 54.0543 23.856C54.6185 23.4722 54.3361 24.0743 54.3964 24.0855C55.1166 24.2166 54.9505 23.7891 54.9731 23.4463C56.1076 23.2747 55.9871 22.8083 54.9917 23.0914C54.8831 23.1229 55.0179 23.3731 54.9731 23.4463C53.8231 23.271 53.6242 22.7794 54.6018 22.089C55.0595 21.7652 55.6608 21.9501 55.3541 21.1618C55.2149 20.8046 54.4491 21.0433 54.1953 20.7471C53.6162 20.0706 54.2188 19.0223 53.9943 18.2762C53.9131 18.0071 53.524 18.3364 53.4538 18.1552C53.2657 17.6755 53.5208 17.1924 53.2786 16.718C53.2561 16.6754 52.8266 16.8553 52.7967 16.702C52.5608 15.5452 52.6729 14.4839 52.4517 13.2728C52.3454 12.6867 51.8918 11.7002 51.8108 11.0937C51.6729 10.0468 52.0094 8.62392 51.6238 7.78452C51.3757 7.24228 50.9713 7.48627 50.609 7.326C49.9081 7.01847 50.7034 5.92001 50.8276 5.76035C50.8321 5.75459 51.0749 6.20464 51.2228 5.88305C51.643 5.59678 50.8311 5.76476 50.8276 5.76035C50.9111 5.65801 50.7126 4.66262 50.5682 4.50469C50.4904 4.41727 50.101 4.60608 50.0682 4.55851C49.7288 4.05907 49.4295 3.54291 49.18 3.03127L52.7115 5.5782C51.9214 5.63163 51.1459 5.59723 50.3607 5.47083C50.3362 5.46173 50.3821 4.98313 50.3243 4.96772C49.5154 4.74044 48.9864 5.32127 48.3261 5.66647C47.6626 6.01189 47.1501 5.8988 46.751 5.08033C46.2562 5.18891 45.5407 4.84049 45.124 4.63328C44.7089 4.42573 44.6849 5.36136 44.6509 5.38092C43.5724 6.01589 42.922 5.51818 41.785 5.53196C41.2444 5.53575 40.2084 5.78624 39.6591 5.96783C39.2252 6.11095 38.9241 5.93585 38.5387 6.14118C38.4867 6.16878 38.6107 6.5693 38.5965 6.58788C38.2331 7.15378 38.275 6.11683 38.1499 5.95427C37.6951 5.36549 37.4049 5.05967 36.8775 5.48516C36.7519 5.58344 36.6756 7.09616 36.4659 7.23308C36.1862 7.41001 36.1791 6.87263 35.8878 7.07458C35.8629 7.09154 35.9463 7.40357 35.7474 7.43923C34.8256 7.6091 33.7875 7.724 32.8714 8.08017C32.7465 8.12749 33.0773 8.55464 32.9018 8.6306C32.0791 8.98669 31.1679 9.33376 30.2614 9.47751C30.0385 9.51115 30.0148 9.12804 29.9277 9.05031C29.3899 8.58461 29.4005 9.61622 29.3509 9.66011C28.9545 10.0029 28.5488 10.224 28.1242 10.408C27.6325 10.5673 27.3154 10.5567 27.619 10.5792C27.6305 10.5823 27.8766 10.6638 28.0279 10.6711C28.1783 10.6832 28.2225 10.6385 27.7941 10.5864C27.7581 10.5802 27.3858 10.5402 27.2749 10.5775C27.2141 10.576 27.2374 10.5948 27.455 10.609C27.4928 10.6088 27.9465 10.6016 27.9006 10.6223C27.855 10.6602 28.1672 10.7988 27.759 11.251C27.6273 11.3846 26.8426 11.8874 27.6413 12.1532C27.692 12.1557 29.4255 12.4806 28.4495 13.083C28.2876 13.1837 27.1535 13.3898 27.8912 13.9376C28.034 14.0491 28.2304 13.7384 28.4686 14.074C28.5357 14.1699 28.5853 14.2787 28.6251 14.3976C28.7677 14.7471 28.7446 15.3188 29.2356 15.6562C29.3423 15.7303 30.1934 16.0107 29.6681 16.4574C29.5853 16.5241 29.1877 16.4976 29.1757 16.6744C29.1202 17.5343 29.5261 18.3627 29.4039 19.2669C29.3595 19.5765 28.7183 19.5262 28.6032 19.8622C28.4882 20.1973 28.4309 20.8676 28.7609 21.1382C29.0929 21.4205 30.023 20.9118 30.1765 21.3945C30.8423 23.4981 30.5399 25.7222 30.6767 27.8987C30.6966 28.2222 31.0244 27.9181 31.0784 28.3955C31.2859 30.1396 31.8305 33.1981 31.1206 34.7792C30.5567 36.034 30.0436 34.5009 29.8274 35.4452C29.7236 35.8965 30.8906 36.3623 30.9289 36.4741C31.3171 37.5519 30.8036 38.3064 30.944 39.2882C30.9727 39.4914 31.4458 39.3015 31.4649 39.4754C31.5339 40.0693 31.3033 40.6902 31.3143 41.2619C31.3201 41.5184 31.6804 41.4896 31.6401 41.7248C31.5473 42.2834 31.3621 42.7867 30.9823 43.3099C30.9477 43.3569 30.5311 42.9847 30.4802 43.3982C30.3989 44.0632 29.9828 44.8724 30.221 45.6863C30.2926 45.9279 31.1043 46.0511 30.4706 46.4797C30.3373 46.5697 29.3879 46.2861 30.1359 46.9992C30.2634 47.111 31.2213 48.3127 30.3907 48.6755C30.1736 48.7696 29.3187 48.9297 29.3804 49.2328C29.3915 49.2755 29.8554 49.2179 29.8447 49.4611C29.7936 50.3355 29.5215 51.1855 29.3734 52.1105C29.3343 52.3568 29.8811 52.1433 29.8065 52.51C29.6065 53.5091 29.0129 54.7128 28.4205 55.6032C28.2005 55.9334 27.9811 55.5224 27.9314 55.5309C27.1374 55.6336 27.8145 56.2737 27.7861 56.4376C27.5998 57.4349 26.8367 57.8533 26.3846 58.6611C26.2546 58.8864 26.708 58.9962 26.7078 59.0607C26.6725 59.7259 26.3078 58.9329 26.032 59.1484C25.2631 59.7363 24.552 60.5436 23.828 61.2351C23.5592 61.4907 24.2023 61.6 23.949 61.8289C22.4453 63.204 20.4018 64.2057 18.4636 64.4691C18.103 64.5173 18.218 64.0855 18.1231 64.0213C17.5979 63.6442 17.1692 64.2318 16.9183 64.51C16.6496 64.6103 16.4068 64.6701 16.2498 64.6934C15.1915 64.8757 13.8559 64.5533 13.0465 64.0457C12.2156 63.5465 11.7867 63.0196 11.5041 62.625C10.9493 61.8073 10.8293 61.2711 10.6039 60.7536C9.76351 58.5248 9.75849 57.5342 9.55766 56.2185C9.40376 54.9777 9.29558 53.8165 9.16094 52.8029C9.15839 52.7844 9.15584 52.7659 9.15329 52.7474C8.756 49.8779 8.6647 47.6054 8.01826 44.932C7.97729 44.7603 7.5133 45.0373 7.47158 44.8908C6.95725 43.0017 6.76707 41.1 6.22186 39.2044C6.17833 39.0502 5.75167 39.3742 5.66591 39.1303C5.48739 38.6339 5.37603 37.9713 5.41766 37.4153C5.43722 37.145 5.91502 37.4021 5.92642 37.1319C5.9538 36.502 5.85584 35.8658 5.64956 35.2597C5.56132 35.0047 5.1599 35.5013 5.08298 35.1622C4.55138 32.8659 3.99002 30.6159 4.12225 28.1435C4.13166 27.9753 5.08593 27.6275 4.82626 27.3316C4.54773 27.3633 4.22686 27.4327 3.93263 27.483C3.06023 24.1335 2.69946 20.7575 2.0363 17.3448C2.00853 17.2023 1.53874 17.5573 1.48241 17.2823C1.15208 15.6729 0.687456 14.1738 0.864047 12.4087C0.881487 12.2367 1.81809 12.1383 1.57829 11.6758C1.53468 11.5925 1.26451 10.8964 1.02877 10.7579C0.993227 10.7372 0.592579 10.9622 0.531057 10.724C0.18987 9.38059 -0.000573081 7.92049 -4.35532e-07 6.49426C0.00161902 6.26724 0.503505 6.41284 0.508822 6.2512C0.538924 5.08014 -0.0347738 3.91156 0.210459 2.71004C0.37703 1.88359 1.21927 2.07452 1.95158 1.56174C2.05248 1.47783 2.02095 1.02588 2.47777 0.937439C3.62746 0.77596 4.91186 0.868256 6.13407 0.66273C6.39217 0.587184 6.08417 0.271812 6.73887 0.423355C6.78012 0.419685 7.02243 0.718346 7.25038 0.776774C7.40714 0.817601 7.86065 0.658706 8.0665 0.753563C8.27383 0.859105 7.89856 1.02441 8.15469 1.21373C8.41544 1.40894 8.9256 1.21989 9.05606 1.64736ZM43.235 3.73025C42.8243 3.30639 42.8764 4.94774 43.2577 4.53077C43.2759 4.50872 43.2558 3.75104 43.235 3.73025ZM56.6865 39.227C57.3852 38.6803 56.3045 38.3776 55.7639 38.7684C55.2237 39.1575 56.4747 39.3929 56.6865 39.227ZM57.4478 44.5287C57.9933 43.9105 55.6641 43.9137 56.1607 44.5308C56.1888 44.5661 57.4162 44.5659 57.4478 44.5287ZM2.44604 3.33341C2.46616 3.32268 2.43544 3.00754 2.41338 3.00539C1.87134 2.92258 1.93352 3.55608 2.44604 3.33341ZM58.2548 49.8114C58.5601 49.6124 58.1714 49.0854 57.7914 49.3388C57.4858 49.5447 57.875 50.0618 58.2548 49.8114ZM24.1295 8.17325C24.1054 8.16244 23.9653 8.33291 24.0861 8.40298C24.4689 8.62609 24.5143 8.34045 24.1295 8.17325ZM59.0243 58.7877C59.0334 57.4711 60.8825 56.4992 60.7714 57.9872C60.7499 58.2543 60.1213 57.4575 59.9712 57.8061C59.6973 58.4377 60.9251 58.7746 60.3149 59.4354C60.2031 59.5547 59.0198 58.8627 59.0215 58.7855C59.0225 58.7863 59.0234 58.787 59.0243 58.7877ZM42.8914 1.77628C42.882 1.75492 42.5648 1.75519 42.5588 1.77737C42.4249 2.30841 43.0581 2.30836 42.8914 1.77628ZM24.3523 21.1283C24.3111 21.1612 24.3784 21.8762 24.4239 21.8946C25.3246 22.1421 25.1873 20.6706 24.3523 21.1283ZM56.8921 12.4639C57.4726 12.7109 57.6096 13.1153 57.0106 13.5044C56.9839 13.1581 56.9258 12.8143 56.8921 12.4639Z" fill="white"/>
</svg>
